<?xml version="1.0" standalone="no"?>
<!DOCTYPE svg PUBLIC "-//W3C//DTD SVG 20010904//EN"
 "http://www.w3.org/TR/2001/REC-SVG-20010904/DTD/svg10.dtd">
<svg version="1.0" xmlns="http://www.w3.org/2000/svg"
 width="300.000000pt" height="300.000000pt" viewBox="0 0 300.000000 300.000000"
 preserveAspectRatio="xMidYMid meet">

<g transform="translate(0.000000,300.000000) scale(0.100000,-0.100000)"
fill="#000000" stroke="none">
<path d="M400 2350 l0 -250 100 0 100 0 0 150 0 150 900 0 900 0 0 -150 0
-150 100 0 100 0 0 250 0 250 -1100 0 -1100 0 0 -250z"/>
<path d="M1311 2089 c-43 -18 -50 -38 -51 -145 0 -88 3 -105 21 -128 17 -22
28 -26 69 -26 41 0 52 4 69 26 18 23 21 41 21 125 0 87 -2 101 -22 123 -26 30
-72 40 -107 25z m49 -149 c0 -60 -4 -100 -10 -100 -6 0 -10 40 -10 100 0 60 4
100 10 100 6 0 10 -40 10 -100z"/>
<path d="M1060 2087 c0 -2 11 -41 25 -88 14 -49 25 -110 25 -146 l0 -63 40 0
40 0 0 58 c0 33 11 94 25 142 14 46 25 87 25 92 0 4 -15 8 -34 8 -37 0 -46
-12 -46 -63 0 -24 -3 -28 -10 -17 -5 8 -10 30 -10 48 0 31 -2 32 -40 32 -22 0
-40 -1 -40 -3z"/>
<path d="M1470 1966 c0 -110 2 -126 21 -150 28 -36 105 -38 137 -3 20 21 22
34 22 150 l0 127 -40 0 -40 0 0 -126 c0 -81 -4 -123 -10 -119 -6 4 -10 57 -10
126 l0 119 -40 0 -40 0 0 -124z"/>
<path d="M1680 1940 l0 -150 45 0 44 0 4 68 3 67 2 -67 2 -68 40 0 40 0 0 64
c0 44 -5 69 -15 79 -13 13 -13 17 1 28 22 18 13 98 -12 116 -11 8 -46 13 -86
13 l-68 0 0 -150z m97 53 c-3 -10 -5 -4 -5 12 0 17 2 24 5 18 2 -7 2 -21 0
-30z"/>
<path d="M1220 1480 l0 -150 35 0 35 0 1 53 c1 56 2 55 19 -10 10 -40 13 -43
45 -43 l35 0 0 150 0 150 -35 0 -35 0 -1 -52 -1 -53 -15 53 c-15 49 -17 52
-49 52 l-34 0 0 -150z"/>
<path d="M1430 1480 l0 -150 40 0 40 0 0 65 c0 63 1 65 25 65 21 0 25 5 25 30
0 25 -4 30 -25 30 -20 0 -25 5 -25 25 0 20 5 25 25 25 21 0 25 5 25 30 l0 30
-65 0 -65 0 0 -150z"/>
<path d="M1570 1600 c0 -23 4 -30 20 -30 19 0 20 -7 20 -120 l0 -120 45 0 45
0 0 120 c0 113 1 120 20 120 16 0 20 7 20 30 l0 30 -85 0 -85 0 0 -30z"/>
<path d="M1120 1030 l0 -150 40 0 40 0 0 66 c0 41 4 63 10 59 6 -3 10 -33 10
-66 l0 -59 40 0 40 0 0 150 0 150 -40 0 -40 0 0 -50 c0 -27 -4 -50 -10 -50 -5
0 -10 23 -10 50 l0 50 -40 0 -40 0 0 -150z"/>
<path d="M1330 1030 l0 -150 70 0 70 0 0 35 c0 32 -2 35 -31 35 -27 0 -30 3
-27 28 2 19 9 28 26 30 17 3 22 10 22 33 0 24 -4 29 -26 29 -21 0 -25 4 -22
23 2 16 11 23 31 25 23 3 27 8 27 33 l0 29 -70 0 -70 0 0 -150z"/>
<path d="M1490 1030 l0 -150 45 0 44 0 4 68 3 67 2 -67 2 -68 40 0 40 0 0 64
c0 44 -5 69 -15 79 -13 13 -13 16 0 27 22 19 19 86 -5 110 -16 16 -33 20 -90
20 l-70 0 0 -150z m97 53 c-3 -10 -5 -4 -5 12 0 17 2 24 5 18 2 -7 2 -21 0
-30z"/>
<path d="M1700 1030 l0 -150 70 0 70 0 0 35 c0 31 -3 35 -25 35 -21 0 -25 5
-25 30 0 23 4 30 20 30 16 0 20 7 20 30 0 23 -4 30 -20 30 -15 0 -20 7 -20 25
0 20 5 25 25 25 21 0 25 5 25 30 l0 30 -70 0 -70 0 0 -150z"/>
<path d="M400 650 l0 -250 1100 0 1100 0 0 250 0 250 -100 0 -100 0 0 -150 0
-150 -900 0 -900 0 0 150 0 150 -100 0 -100 0 0 -250z"/>
</g>
</svg>
